<svg width="334" height="77" viewBox="0 0 334 77" fill="none" xmlns="http://www.w3.org/2000/svg">
<circle cx="52" cy="17.4702" r="17.0702" fill="#CA3660"/>
<path d="M49.2328 12.0846C50.0469 11.5276 52.0606 10.7478 53.6031 12.0846" stroke="#F5F5F5" stroke-width="1.2193" stroke-linecap="round"/>
<rect x="43.6534" y="14.6266" width="12.6206" height="11.043" rx="0.812866" fill="#F5F5F5"/>
<path d="M46.0197 10.928C47.9049 8.95711 52.678 6.19779 56.6885 10.928" stroke="#F5F5F5" stroke-width="1.2193" stroke-linecap="round"/>
<path fill-rule="evenodd" clip-rule="evenodd" d="M57.0627 16.8264V23.5795L59.6347 25.5479C60.1695 25.9572 60.9415 25.5759 60.9415 24.9024L60.9415 15.5035C60.9415 14.83 60.1695 14.4486 59.6347 14.858L57.0627 16.8264Z" fill="#F5F5F5"/>
<path d="M9.12325 55.5404V46.2024H12.3153C15.2133 46.2024 17.1033 48.2324 17.1033 50.8784C17.1033 53.5384 15.2133 55.5404 12.3153 55.5404H9.12325ZM10.2853 54.5044H12.3153C14.5833 54.5044 15.8993 52.8804 15.8993 50.8784C15.8993 48.8624 14.6253 47.2384 12.3153 47.2384H10.2853V54.5044ZM21.838 55.7084C19.78 55.7084 18.492 54.1124 18.492 52.1524C18.492 50.1924 19.78 48.6104 21.838 48.6104C23.896 48.6104 25.184 50.1924 25.184 52.1524C25.184 54.1124 23.896 55.7084 21.838 55.7084ZM21.838 54.7704C23.28 54.7704 24.078 53.5384 24.078 52.1524C24.078 50.7804 23.28 49.5484 21.838 49.5484C20.396 49.5484 19.584 50.7804 19.584 52.1524C19.584 53.5384 20.396 54.7704 21.838 54.7704ZM26.2657 52.6144V51.6904H29.6257V52.6144H26.2657ZM31.611 47.6444C31.233 47.6444 30.911 47.3224 30.911 46.9304C30.911 46.5384 31.233 46.2304 31.611 46.2304C32.003 46.2304 32.325 46.5384 32.325 46.9304C32.325 47.3224 32.003 47.6444 31.611 47.6444ZM31.093 55.5404V48.7784H32.143V55.5404H31.093ZM35.9455 55.7084C34.9515 55.7084 34.4475 55.1344 34.4475 54.1264V49.7024H33.3275V48.7784H34.4475V46.9304H35.4975V48.7784H36.8695V49.7024H35.4975V53.9024C35.4975 54.4064 35.7215 54.7704 36.1835 54.7704C36.4775 54.7704 36.7575 54.6444 36.8975 54.4904L37.2055 55.2744C36.9395 55.5264 36.5615 55.7084 35.9455 55.7084ZM37.7227 52.6144V51.6904H41.0827V52.6144H37.7227ZM44.258 55.7084C43.264 55.7084 42.76 55.1344 42.76 54.1264V49.7024H41.64V48.7784H42.76V46.9304H43.81V48.7784H45.182V49.7024H43.81V53.9024C43.81 54.4064 44.034 54.7704 44.496 54.7704C44.79 54.7704 45.07 54.6444 45.21 54.4904L45.518 55.2744C45.252 55.5264 44.874 55.7084 44.258 55.7084ZM49.6192 55.7084C47.5612 55.7084 46.2732 54.1124 46.2732 52.1524C46.2732 50.1924 47.5612 48.6104 49.6192 48.6104C51.6772 48.6104 52.9652 50.1924 52.9652 52.1524C52.9652 54.1124 51.6772 55.7084 49.6192 55.7084ZM49.6192 54.7704C51.0612 54.7704 51.8592 53.5384 51.8592 52.1524C51.8592 50.7804 51.0612 49.5484 49.6192 49.5484C48.1772 49.5484 47.3652 50.7804 47.3652 52.1524C47.3652 53.5384 48.1772 54.7704 49.6192 54.7704ZM54.663 57.2764L55.195 56.4924C55.755 57.1644 56.427 57.4164 57.393 57.4164C58.513 57.4164 59.563 56.8704 59.563 55.3864V54.4204C59.073 55.1064 58.247 55.6244 57.295 55.6244C55.531 55.6244 54.285 54.3084 54.285 52.1244C54.285 49.9544 55.517 48.6104 57.295 48.6104C58.205 48.6104 59.017 49.0584 59.563 49.8004V48.7784H60.613V55.3444C60.613 57.5844 59.045 58.2844 57.393 58.2844C56.245 58.2844 55.461 58.0604 54.663 57.2764ZM59.563 53.5944V50.6404C59.199 50.0524 58.387 49.5484 57.547 49.5484C56.189 49.5484 55.377 50.6264 55.377 52.1244C55.377 53.6084 56.189 54.7004 57.547 54.7004C58.387 54.7004 59.199 54.1824 59.563 53.5944ZM62.324 52.1524C62.324 50.1924 63.724 48.6104 65.656 48.6104C67.7 48.6104 68.904 50.2064 68.904 52.2364V52.5024H63.43C63.514 53.7764 64.41 54.8404 65.866 54.8404C66.636 54.8404 67.42 54.5324 67.952 53.9864L68.456 54.6724C67.784 55.3444 66.874 55.7084 65.768 55.7084C63.766 55.7084 62.324 54.2664 62.324 52.1524ZM65.642 49.4784C64.2 49.4784 63.486 50.6964 63.43 51.7324H67.868C67.854 50.7244 67.182 49.4784 65.642 49.4784ZM72.3127 55.7084C71.3187 55.7084 70.8147 55.1344 70.8147 54.1264V49.7024H69.6947V48.7784H70.8147V46.9304H71.8647V48.7784H73.2367V49.7024H71.8647V53.9024C71.8647 54.4064 72.0887 54.7704 72.5507 54.7704C72.8447 54.7704 73.1247 54.6444 73.2647 54.4904L73.5727 55.2744C73.3067 55.5264 72.9287 55.7084 72.3127 55.7084ZM79.2979 55.5404V51.0884C79.2979 49.8984 78.6819 49.5484 77.7719 49.5484C76.9599 49.5484 76.1759 50.0524 75.7699 50.5984V55.5404H74.7199V46.2024H75.7699V49.7584C76.2459 49.1984 77.1699 48.6104 78.1919 48.6104C79.6059 48.6104 80.3479 49.2964 80.3479 50.7664V55.5404H79.2979ZM82.0525 52.1524C82.0525 50.1924 83.4525 48.6104 85.3845 48.6104C87.4285 48.6104 88.6325 50.2064 88.6325 52.2364V52.5024H83.1585C83.2425 53.7764 84.1385 54.8404 85.5945 54.8404C86.3645 54.8404 87.1485 54.5324 87.6805 53.9864L88.1845 54.6724C87.5125 55.3444 86.6025 55.7084 85.4965 55.7084C83.4945 55.7084 82.0525 54.2664 82.0525 52.1524ZM85.3705 49.4784C83.9285 49.4784 83.2145 50.6964 83.1585 51.7324H87.5965C87.5825 50.7244 86.9105 49.4784 85.3705 49.4784ZM90.3332 55.5404V48.7784H91.3832V49.8704C91.9292 49.1564 92.7132 48.6384 93.6372 48.6384V49.7164C93.5112 49.6884 93.3852 49.6744 93.2172 49.6744C92.5732 49.6744 91.6912 50.2064 91.3832 50.7524V55.5404H90.3332ZM94.0582 57.3184L93.5402 56.8844C93.9882 56.5904 94.3942 56.0444 94.4502 55.5824C94.4222 55.5964 94.3242 55.6104 94.2542 55.6104C93.8622 55.6104 93.5822 55.3164 93.5822 54.8964C93.5822 54.4904 93.9042 54.1404 94.3242 54.1404C94.7862 54.1404 95.2062 54.5324 95.2062 55.2044C95.2062 56.0584 94.7022 56.8564 94.0582 57.3184ZM14.092 72.5404V63.2024H15.142V72.5404H14.092ZM17.7545 64.6444C17.3765 64.6444 17.0545 64.3224 17.0545 63.9304C17.0545 63.5384 17.3765 63.2304 17.7545 63.2304C18.1465 63.2304 18.4685 63.5384 18.4685 63.9304C18.4685 64.3224 18.1465 64.6444 17.7545 64.6444ZM17.2365 72.5404V65.7784H18.2865V72.5404H17.2365ZM22.1871 72.5404L19.3731 65.7784H20.5071L22.7611 71.3224L25.0011 65.7784H26.1491L23.3351 72.5404H22.1871ZM26.8523 69.1524C26.8523 67.1924 28.2523 65.6104 30.1843 65.6104C32.2283 65.6104 33.4323 67.2064 33.4323 69.2364V69.5024H27.9583C28.0423 70.7764 28.9383 71.8404 30.3943 71.8404C31.1643 71.8404 31.9483 71.5324 32.4803 70.9864L32.9843 71.6724C32.3123 72.3444 31.4023 72.7084 30.2963 72.7084C28.2943 72.7084 26.8523 71.2664 26.8523 69.1524ZM30.1703 66.4784C28.7283 66.4784 28.0143 67.6964 27.9583 68.7324H32.3963C32.3823 67.7244 31.7103 66.4784 30.1703 66.4784ZM41.6964 72.7084C39.6384 72.7084 38.3504 71.1124 38.3504 69.1524C38.3504 67.1924 39.6384 65.6104 41.6964 65.6104C43.7544 65.6104 45.0424 67.1924 45.0424 69.1524C45.0424 71.1124 43.7544 72.7084 41.6964 72.7084ZM41.6964 71.7704C43.1384 71.7704 43.9364 70.5384 43.9364 69.1524C43.9364 67.7804 43.1384 66.5484 41.6964 66.5484C40.2544 66.5484 39.4424 67.7804 39.4424 69.1524C39.4424 70.5384 40.2544 71.7704 41.6964 71.7704ZM51.3181 72.5404V68.1164C51.3181 66.9264 50.7161 66.5484 49.8061 66.5484C48.9801 66.5484 48.1961 67.0524 47.8041 67.5984V72.5404H46.7541V65.7784H47.8041V66.7584C48.2801 66.1984 49.2041 65.6104 50.2121 65.6104C51.6261 65.6104 52.3681 66.3244 52.3681 67.7944V72.5404H51.3181ZM57.7524 72.5404V71.7284L61.4764 66.7024H57.7524V65.7784H62.8484V66.5764L59.0964 71.6304H62.9044V72.5404H57.7524ZM67.6319 72.7084C65.5739 72.7084 64.2859 71.1124 64.2859 69.1524C64.2859 67.1924 65.5739 65.6104 67.6319 65.6104C69.6899 65.6104 70.9779 67.1924 70.9779 69.1524C70.9779 71.1124 69.6899 72.7084 67.6319 72.7084ZM67.6319 71.7704C69.0739 71.7704 69.8719 70.5384 69.8719 69.1524C69.8719 67.7804 69.0739 66.5484 67.6319 66.5484C66.1899 66.5484 65.3779 67.7804 65.3779 69.1524C65.3779 70.5384 66.1899 71.7704 67.6319 71.7704ZM75.6436 72.7084C73.5856 72.7084 72.2976 71.1124 72.2976 69.1524C72.2976 67.1924 73.5856 65.6104 75.6436 65.6104C77.7016 65.6104 78.9896 67.1924 78.9896 69.1524C78.9896 71.1124 77.7016 72.7084 75.6436 72.7084ZM75.6436 71.7704C77.0856 71.7704 77.8836 70.5384 77.8836 69.1524C77.8836 67.7804 77.0856 66.5484 75.6436 66.5484C74.2016 66.5484 73.3896 67.7804 73.3896 69.1524C73.3896 70.5384 74.2016 71.7704 75.6436 71.7704ZM88.8634 72.5404V67.9484C88.8634 67.0944 88.4854 66.5484 87.6174 66.5484C86.9174 66.5484 86.1754 67.0524 85.8254 67.5844V72.5404H84.7754V67.9484C84.7754 67.0944 84.4114 66.5484 83.5294 66.5484C82.8434 66.5484 82.1154 67.0524 81.7514 67.5984V72.5404H80.7014V65.7784H81.7514V66.7584C82.0314 66.3244 82.9414 65.6104 83.9354 65.6104C84.9714 65.6104 85.5594 66.1704 85.7554 66.8704C86.1334 66.2544 87.0434 65.6104 88.0234 65.6104C89.2554 65.6104 89.9134 66.2964 89.9134 67.6544V72.5404H88.8634Z" fill="white"/>
<circle cx="167" cy="17.4702" r="17.0702" fill="#CA3660"/>
<path d="M166.819 6.7355C166.868 6.58572 167.08 6.58572 167.128 6.7355L169.401 13.7299C169.423 13.7969 169.485 13.8423 169.556 13.8423H176.91C177.067 13.8423 177.133 14.0438 177.006 14.1364L171.056 18.4592C170.999 18.5006 170.975 18.5739 170.997 18.6409L173.269 25.6354C173.318 25.7851 173.146 25.9097 173.019 25.8171L167.069 21.4943C167.012 21.4529 166.935 21.4529 166.878 21.4943L160.928 25.8171C160.801 25.9097 160.629 25.7851 160.678 25.6354L162.951 18.6409C162.973 18.5739 162.949 18.5006 162.892 18.4592L156.942 14.1364C156.814 14.0438 156.88 13.8423 157.037 13.8423H164.392C164.462 13.8423 164.525 13.7969 164.546 13.7299L166.819 6.7355Z" fill="#F5F5F5"/>
<path d="M152.492 55.5404V53.1744H148.054V52.2084L152.058 46.2024H153.654V52.1524H154.97V53.1744H153.654V55.5404H152.492ZM152.492 47.2804L149.216 52.1524H152.492V47.2804ZM156.253 54.9104C156.253 54.4904 156.603 54.1404 157.023 54.1404C157.443 54.1404 157.793 54.4904 157.793 54.9104C157.793 55.3304 157.443 55.6804 157.023 55.6804C156.603 55.6804 156.253 55.3304 156.253 54.9104ZM159.368 53.1744C159.368 51.9284 160.432 51.0744 161.594 50.7244C160.516 50.4164 159.522 49.7164 159.522 48.4844C159.522 46.8044 161.16 46.0624 162.714 46.0624C164.254 46.0624 165.92 46.8044 165.92 48.4844C165.92 49.7164 164.912 50.4164 163.834 50.7244C164.996 51.0744 166.06 51.9284 166.06 53.1744C166.06 54.7564 164.548 55.7084 162.714 55.7084C160.866 55.7084 159.368 54.7704 159.368 53.1744ZM164.744 48.6384C164.744 47.6724 163.834 47.0984 162.714 47.0984C161.58 47.0984 160.684 47.6724 160.684 48.6384C160.684 49.7724 162.154 50.1504 162.714 50.2484C163.288 50.1504 164.744 49.7724 164.744 48.6384ZM164.884 53.0484C164.884 51.8304 163.288 51.3124 162.714 51.2424C162.14 51.3124 160.53 51.8304 160.53 53.0484C160.53 54.0564 161.552 54.6724 162.714 54.6724C163.862 54.6724 164.884 54.0564 164.884 53.0484ZM170.384 55.8204L173.702 45.9224H174.528L171.21 55.8204H170.384ZM175.45 54.2104L176.164 53.4404C176.78 54.2244 177.592 54.6724 178.74 54.6724C180.014 54.6724 180.896 53.8044 180.896 52.6704C180.896 51.4384 180.014 50.6544 178.754 50.6544C177.928 50.6544 177.228 50.9204 176.598 51.5364L175.744 51.2424V46.2024H181.456V47.2384H176.906V50.4864C177.354 50.0384 178.152 49.6464 179.09 49.6464C180.644 49.6464 182.058 50.7104 182.058 52.6284C182.058 54.5324 180.616 55.7084 178.74 55.7084C177.158 55.7084 176.15 55.1344 175.45 54.2104ZM130.149 72.5404L127.769 68.8304H125.907V72.5404H124.745V63.2024H128.497C130.205 63.2024 131.423 64.2944 131.423 66.0164C131.423 67.6964 130.275 68.6204 129.001 68.7324L131.521 72.5404H130.149ZM130.219 66.0164C130.219 64.9664 129.463 64.2384 128.357 64.2384H125.907V67.8084H128.357C129.463 67.8084 130.219 67.0664 130.219 66.0164ZM137.175 72.5404V71.7704C136.615 72.3864 135.845 72.7084 134.935 72.7084C133.787 72.7084 132.569 71.9384 132.569 70.4684C132.569 68.9564 133.787 68.2424 134.935 68.2424C135.859 68.2424 136.629 68.5364 137.175 69.1664V67.9484C137.175 67.0384 136.447 66.5204 135.467 66.5204C134.655 66.5204 133.997 66.8144 133.395 67.4584L132.905 66.7304C133.633 65.9744 134.501 65.6104 135.607 65.6104C137.035 65.6104 138.225 66.2544 138.225 67.8924V72.5404H137.175ZM137.175 71.1124V69.8384C136.769 69.2784 136.055 68.9984 135.313 68.9984C134.333 68.9984 133.647 69.6144 133.647 70.4824C133.647 71.3364 134.333 71.9524 135.313 71.9524C136.055 71.9524 136.769 71.6724 137.175 71.1124ZM142.038 72.7084C141.044 72.7084 140.54 72.1344 140.54 71.1264V66.7024H139.42V65.7784H140.54V63.9304H141.59V65.7784H142.962V66.7024H141.59V70.9024C141.59 71.4064 141.814 71.7704 142.276 71.7704C142.57 71.7704 142.85 71.6444 142.99 71.4904L143.298 72.2744C143.032 72.5264 142.654 72.7084 142.038 72.7084ZM144.054 69.1524C144.054 67.1924 145.454 65.6104 147.386 65.6104C149.43 65.6104 150.634 67.2064 150.634 69.2364V69.5024H145.16C145.244 70.7764 146.14 71.8404 147.596 71.8404C148.366 71.8404 149.15 71.5324 149.682 70.9864L150.186 71.6724C149.514 72.3444 148.604 72.7084 147.498 72.7084C145.496 72.7084 144.054 71.2664 144.054 69.1524ZM147.372 66.4784C145.93 66.4784 145.216 67.6964 145.16 68.7324H149.598C149.584 67.7244 148.912 66.4784 147.372 66.4784ZM157.234 72.5404V71.5324C156.73 72.2184 155.904 72.7084 154.952 72.7084C153.188 72.7084 151.942 71.3644 151.942 69.1664C151.942 67.0104 153.174 65.6104 154.952 65.6104C155.862 65.6104 156.688 66.0584 157.234 66.8004V63.2024H158.284V72.5404H157.234ZM157.234 70.7064V67.6404C156.856 67.0524 156.044 66.5484 155.204 66.5484C153.846 66.5484 153.034 67.6684 153.034 69.1664C153.034 70.6644 153.846 71.7704 155.204 71.7704C156.044 71.7704 156.856 71.2944 157.234 70.7064ZM168.42 72.7084C165.774 72.7084 163.66 70.7484 163.66 67.8784C163.66 65.0084 165.774 63.0484 168.42 63.0484C170.114 63.0484 171.262 63.8464 172.004 64.8964L171.024 65.4424C170.492 64.6584 169.526 64.0844 168.42 64.0844C166.418 64.0844 164.864 65.6524 164.864 67.8784C164.864 70.0904 166.418 71.6724 168.42 71.6724C169.526 71.6724 170.492 71.1124 171.024 70.3144L172.018 70.8604C171.234 71.9244 170.114 72.7084 168.42 72.7084ZM173.457 72.5404V63.2024H174.507V72.5404H173.457ZM180.83 72.5404V71.7704C180.27 72.3864 179.5 72.7084 178.59 72.7084C177.442 72.7084 176.224 71.9384 176.224 70.4684C176.224 68.9564 177.442 68.2424 178.59 68.2424C179.514 68.2424 180.284 68.5364 180.83 69.1664V67.9484C180.83 67.0384 180.102 66.5204 179.122 66.5204C178.31 66.5204 177.652 66.8144 177.05 67.4584L176.56 66.7304C177.288 65.9744 178.156 65.6104 179.262 65.6104C180.69 65.6104 181.88 66.2544 181.88 67.8924V72.5404H180.83ZM180.83 71.1124V69.8384C180.424 69.2784 179.71 68.9984 178.968 68.9984C177.988 68.9984 177.302 69.6144 177.302 70.4824C177.302 71.3364 177.988 71.9524 178.968 71.9524C179.71 71.9524 180.424 71.6724 180.83 71.1124ZM183.397 71.6444L183.943 70.8884C184.391 71.4064 185.245 71.8544 186.169 71.8544C187.205 71.8544 187.765 71.3924 187.765 70.7344C187.765 69.9924 186.939 69.7544 186.029 69.5304C184.881 69.2644 183.579 68.9564 183.579 67.5564C183.579 66.5064 184.489 65.6104 186.099 65.6104C187.247 65.6104 188.059 66.0444 188.605 66.5904L188.115 67.3184C187.709 66.8284 186.967 66.4644 186.099 66.4644C185.175 66.4644 184.601 66.8844 184.601 67.4864C184.601 68.1444 185.371 68.3544 186.253 68.5644C187.429 68.8304 188.787 69.1664 188.787 70.6644C188.787 71.7984 187.877 72.7084 186.127 72.7084C185.021 72.7084 184.083 72.3724 183.397 71.6444ZM189.904 71.6444L190.45 70.8884C190.898 71.4064 191.752 71.8544 192.676 71.8544C193.712 71.8544 194.272 71.3924 194.272 70.7344C194.272 69.9924 193.446 69.7544 192.536 69.5304C191.388 69.2644 190.086 68.9564 190.086 67.5564C190.086 66.5064 190.996 65.6104 192.606 65.6104C193.754 65.6104 194.566 66.0444 195.112 66.5904L194.622 67.3184C194.216 66.8284 193.474 66.4644 192.606 66.4644C191.682 66.4644 191.108 66.8844 191.108 67.4864C191.108 68.1444 191.878 68.3544 192.76 68.5644C193.936 68.8304 195.294 69.1664 195.294 70.6644C195.294 71.7984 194.384 72.7084 192.634 72.7084C191.528 72.7084 190.59 72.3724 189.904 71.6444ZM196.608 69.1524C196.608 67.1924 198.008 65.6104 199.94 65.6104C201.984 65.6104 203.188 67.2064 203.188 69.2364V69.5024H197.714C197.798 70.7764 198.694 71.8404 200.15 71.8404C200.92 71.8404 201.704 71.5324 202.236 70.9864L202.74 71.6724C202.068 72.3444 201.158 72.7084 200.052 72.7084C198.05 72.7084 196.608 71.2664 196.608 69.1524ZM199.926 66.4784C198.484 66.4784 197.77 67.6964 197.714 68.7324H202.152C202.138 67.7244 201.466 66.4784 199.926 66.4784ZM204.301 71.6444L204.847 70.8884C205.295 71.4064 206.149 71.8544 207.073 71.8544C208.109 71.8544 208.669 71.3924 208.669 70.7344C208.669 69.9924 207.843 69.7544 206.933 69.5304C205.785 69.2644 204.483 68.9564 204.483 67.5564C204.483 66.5064 205.393 65.6104 207.003 65.6104C208.151 65.6104 208.963 66.0444 209.509 66.5904L209.019 67.3184C208.613 66.8284 207.871 66.4644 207.003 66.4644C206.079 66.4644 205.505 66.8844 205.505 67.4864C205.505 68.1444 206.275 68.3544 207.157 68.5644C208.333 68.8304 209.691 69.1664 209.691 70.6644C209.691 71.7984 208.781 72.7084 207.031 72.7084C205.925 72.7084 204.987 72.3724 204.301 71.6444Z" fill="white"/>
<circle cx="282" cy="17.4702" r="17.0702" fill="#CA3660"/>
<path fill-rule="evenodd" clip-rule="evenodd" d="M281.599 17.5595C283.339 17.5595 284.749 16.1493 284.749 14.4097C284.749 12.6701 283.339 11.2598 281.599 11.2598C279.86 11.2598 278.449 12.6701 278.449 14.4097C278.449 16.1493 279.86 17.5595 281.599 17.5595ZM292.099 14.9345C292.099 16.0942 291.159 17.0344 289.999 17.0344C288.839 17.0344 287.899 16.0942 287.899 14.9345C287.899 13.7748 288.839 12.8346 289.999 12.8346C291.159 12.8346 292.099 13.7748 292.099 14.9345ZM274.25 22.0218C274.25 20.5834 274.943 19.3024 276.003 18.5045C275.573 18.242 275.058 18.0845 274.512 18.0845H271.887C270.291 18.0845 269 19.3759 269 20.9718V21.4968C269 21.9273 269.357 22.2843 269.787 22.2843H274.25V22.0218ZM274.1 17.0344C275.26 17.0344 276.2 16.0942 276.2 14.9345C276.2 13.7748 275.26 12.8346 274.1 12.8346C272.94 12.8346 272 13.7748 272 14.9345C272 16.0942 272.94 17.0344 274.1 17.0344ZM294.199 21.4968V20.9718C294.199 19.3759 292.907 18.0845 291.311 18.0845H288.687C288.141 18.0845 287.626 18.242 287.196 18.5045C288.256 19.3024 288.949 20.5834 288.949 22.0218V22.2843H293.411C293.842 22.2843 294.199 21.9273 294.199 21.4968ZM278.712 19.1345H284.487C286.079 19.1345 287.374 20.429 287.374 22.0218V23.5968C287.374 24.0314 287.021 24.3842 286.587 24.3842H276.612C276.177 24.3842 275.825 24.0314 275.825 23.5968V22.0218C275.825 20.429 277.119 19.1345 278.712 19.1345Z" fill="#F5F5F5"/>
<path d="M256.224 54.1684L256.91 53.4404C257.456 54.1684 258.408 54.6724 259.514 54.6724C260.872 54.6724 261.698 54.0004 261.698 52.9224C261.698 51.7604 260.746 51.2704 259.374 51.2704C258.982 51.2704 258.548 51.2704 258.408 51.2844V50.2204C258.562 50.2344 258.996 50.2344 259.374 50.2344C260.55 50.2344 261.544 49.7724 261.544 48.6944C261.544 47.6584 260.592 47.0984 259.458 47.0984C258.436 47.0984 257.68 47.4904 256.994 48.2324L256.35 47.5044C257.022 46.6924 258.1 46.0624 259.542 46.0624C261.334 46.0624 262.706 46.9724 262.706 48.5544C262.706 49.8984 261.572 50.5704 260.69 50.7244C261.544 50.7944 262.846 51.5224 262.846 53.0204C262.846 54.5744 261.6 55.7084 259.542 55.7084C257.96 55.7084 256.798 55.0084 256.224 54.1684ZM264.535 54.2104L265.249 53.4404C265.865 54.2244 266.677 54.6724 267.825 54.6724C269.099 54.6724 269.981 53.8044 269.981 52.6704C269.981 51.4384 269.099 50.6544 267.839 50.6544C267.013 50.6544 266.313 50.9204 265.683 51.5364L264.829 51.2424V46.2024H270.541V47.2384H265.991V50.4864C266.439 50.0384 267.237 49.6464 268.175 49.6464C269.729 49.6464 271.143 50.7104 271.143 52.6284C271.143 54.5324 269.701 55.7084 267.825 55.7084C266.243 55.7084 265.235 55.1344 264.535 54.2104ZM272.583 50.8784C272.583 48.5964 273.591 46.0624 276.153 46.0624C278.701 46.0624 279.723 48.5964 279.723 50.8784C279.723 53.1464 278.701 55.7084 276.153 55.7084C273.591 55.7084 272.583 53.1464 272.583 50.8784ZM278.533 50.8784C278.533 49.0164 277.931 47.0984 276.153 47.0984C274.375 47.0984 273.773 49.0164 273.773 50.8784C273.773 52.7404 274.375 54.6724 276.153 54.6724C277.931 54.6724 278.533 52.7404 278.533 50.8784ZM281.155 50.8784C281.155 48.5964 282.163 46.0624 284.725 46.0624C287.273 46.0624 288.295 48.5964 288.295 50.8784C288.295 53.1464 287.273 55.7084 284.725 55.7084C282.163 55.7084 281.155 53.1464 281.155 50.8784ZM287.105 50.8784C287.105 49.0164 286.503 47.0984 284.725 47.0984C282.947 47.0984 282.345 49.0164 282.345 50.8784C282.345 52.7404 282.947 54.6724 284.725 54.6724C286.503 54.6724 287.105 52.7404 287.105 50.8784ZM289.728 50.8784C289.728 48.5964 290.736 46.0624 293.298 46.0624C295.846 46.0624 296.868 48.5964 296.868 50.8784C296.868 53.1464 295.846 55.7084 293.298 55.7084C290.736 55.7084 289.728 53.1464 289.728 50.8784ZM295.678 50.8784C295.678 49.0164 295.076 47.0984 293.298 47.0984C291.52 47.0984 290.918 49.0164 290.918 50.8784C290.918 52.7404 291.52 54.6724 293.298 54.6724C295.076 54.6724 295.678 52.7404 295.678 50.8784ZM301.478 51.1864V54.1684H300.68V51.1864H297.992V50.4584H300.68V47.5604H301.478V50.4584H304.166V51.1864H301.478ZM262.279 72.5404V64.7704L259.101 72.5404H258.625L255.461 64.7704V72.5404H254.299V63.2024H255.965L258.863 70.3144L261.775 63.2024H263.441V72.5404H262.279ZM265.185 69.1524C265.185 67.1924 266.585 65.6104 268.517 65.6104C270.561 65.6104 271.765 67.2064 271.765 69.2364V69.5024H266.291C266.375 70.7764 267.271 71.8404 268.727 71.8404C269.497 71.8404 270.281 71.5324 270.813 70.9864L271.317 71.6724C270.645 72.3444 269.735 72.7084 268.629 72.7084C266.627 72.7084 265.185 71.2664 265.185 69.1524ZM268.503 66.4784C267.061 66.4784 266.347 67.6964 266.291 68.7324H270.729C270.715 67.7244 270.043 66.4784 268.503 66.4784ZM281.628 72.5404V67.9484C281.628 67.0944 281.25 66.5484 280.382 66.5484C279.682 66.5484 278.94 67.0524 278.59 67.5844V72.5404H277.54V67.9484C277.54 67.0944 277.176 66.5484 276.294 66.5484C275.608 66.5484 274.88 67.0524 274.516 67.5984V72.5404H273.466V65.7784H274.516V66.7584C274.796 66.3244 275.706 65.6104 276.7 65.6104C277.736 65.6104 278.324 66.1704 278.52 66.8704C278.898 66.2544 279.808 65.6104 280.788 65.6104C282.02 65.6104 282.678 66.2964 282.678 67.6544V72.5404H281.628ZM284.773 72.5404V63.2024H285.823V66.8004C286.369 66.0584 287.181 65.6104 288.105 65.6104C289.869 65.6104 291.115 67.0104 291.115 69.1664C291.115 71.3644 289.869 72.7084 288.105 72.7084C287.153 72.7084 286.327 72.2184 285.823 71.5324V72.5404H284.773ZM285.823 70.7064C286.187 71.2944 287.013 71.7704 287.839 71.7704C289.211 71.7704 290.023 70.6644 290.023 69.1664C290.023 67.6684 289.211 66.5484 287.839 66.5484C287.013 66.5484 286.187 67.0524 285.823 67.6404V70.7064ZM292.433 69.1524C292.433 67.1924 293.833 65.6104 295.765 65.6104C297.809 65.6104 299.013 67.2064 299.013 69.2364V69.5024H293.539C293.623 70.7764 294.519 71.8404 295.975 71.8404C296.745 71.8404 297.529 71.5324 298.061 70.9864L298.565 71.6724C297.893 72.3444 296.983 72.7084 295.877 72.7084C293.875 72.7084 292.433 71.2664 292.433 69.1524ZM295.751 66.4784C294.309 66.4784 293.595 67.6964 293.539 68.7324H297.977C297.963 67.7244 297.291 66.4784 295.751 66.4784ZM300.714 72.5404V65.7784H301.764V66.8704C302.31 66.1564 303.094 65.6384 304.018 65.6384V66.7164C303.892 66.6884 303.766 66.6744 303.598 66.6744C302.954 66.6744 302.072 67.2064 301.764 67.7524V72.5404H300.714ZM304.747 71.6444L305.293 70.8884C305.741 71.4064 306.595 71.8544 307.519 71.8544C308.555 71.8544 309.115 71.3924 309.115 70.7344C309.115 69.9924 308.289 69.7544 307.379 69.5304C306.231 69.2644 304.929 68.9564 304.929 67.5564C304.929 66.5064 305.839 65.6104 307.449 65.6104C308.597 65.6104 309.409 66.0444 309.955 66.5904L309.465 67.3184C309.059 66.8284 308.317 66.4644 307.449 66.4644C306.525 66.4644 305.951 66.8844 305.951 67.4864C305.951 68.1444 306.721 68.3544 307.603 68.5644C308.779 68.8304 310.137 69.1664 310.137 70.6644C310.137 71.7984 309.227 72.7084 307.477 72.7084C306.371 72.7084 305.433 72.3724 304.747 71.6444Z" fill="white"/>
</svg>
