<svg width="327" height="61" viewBox="0 0 327 61" fill="none" xmlns="http://www.w3.org/2000/svg">
<path d="M42.7398 29.9137L44.5 27.5923L44.5 33.2078L42.7398 30.8863V29.9137ZM5.03089e-07 29.9137L42.9158 29.9137V30.8863L5.03089e-07 30.8863V29.9137Z" fill="url(#paint0_linear_1_224)"/>
<g filter="url(#filter0_d_1_224)">
<path d="M92.0409 3.60002H94.1049C94.7769 3.60002 95.2089 3.72002 95.2089 4.12802C95.2089 4.96802 93.9369 4.60802 93.2649 6.55202L88.7769 19.752C88.6809 20.064 88.4169 20.328 87.6249 20.472C86.7849 20.616 86.4009 20.496 86.2809 20.112L82.5849 9.40802L79.0809 19.752C78.9609 20.088 78.7209 20.328 77.9289 20.472C77.1129 20.592 76.7289 20.496 76.6089 20.112L71.8569 6.57602C71.1849 4.68002 70.1049 4.96802 70.1049 4.17602C70.1049 3.69602 70.4889 3.60002 71.2329 3.60002H74.5449C75.1929 3.60002 75.5769 3.72002 75.5769 4.15202C75.5769 4.96802 74.2329 4.77602 74.8569 6.60002L78.4809 17.376L81.8889 7.41602L81.6249 6.60002C80.9769 4.68002 79.8969 4.96802 79.8969 4.17602C79.8969 3.69602 80.2809 3.60002 81.0249 3.60002H84.3369C84.9849 3.60002 85.3929 3.72002 85.3929 4.15202C85.3929 4.96802 84.0249 4.77602 84.6249 6.60002L88.1769 17.304L91.7289 6.57602C92.3769 4.63202 91.0569 4.96802 91.0569 4.17602C91.0569 3.69602 91.4889 3.60002 92.0409 3.60002ZM108.141 13.632L108.933 17.784C109.221 19.272 110.181 19.08 110.181 19.872C110.181 20.304 109.821 20.4 109.197 20.4H106.245C105.621 20.4 105.213 20.28 105.213 19.848C105.213 19.104 106.485 19.224 106.197 17.664L105.477 13.776C105.165 12.072 104.733 10.392 102.837 10.416C101.421 10.44 100.029 11.712 100.029 14.208V17.16C100.029 19.416 101.157 18.936 101.157 19.872C101.157 20.304 100.797 20.4 100.173 20.4H97.1488C96.5488 20.4 96.1408 20.28 96.1408 19.848C96.1408 18.936 97.3168 19.416 97.3168 17.16L97.2928 7.29602C97.2928 5.40002 96.1408 5.71202 96.1408 4.96802C96.1408 4.68002 96.2848 4.53602 96.8608 4.27202C97.8928 3.79202 99.1648 3.38402 99.5248 3.36002C99.8848 3.33602 100.053 3.52802 100.053 3.98402L100.029 7.29602V10.608C100.965 9.31202 102.381 8.64002 103.821 8.64002C106.389 8.64002 107.517 10.2 108.141 13.632ZM119.801 8.88002H121.313C121.913 8.88002 122.321 9.00002 122.321 9.40802C122.321 10.176 121.385 9.96002 120.641 11.88L117.545 19.872C116.225 23.256 115.337 25.44 112.481 25.44C111.041 25.44 109.937 24.624 109.937 23.496C109.937 22.752 110.417 22.032 111.233 22.032C112.433 22.008 112.505 23.832 113.681 23.832C114.473 23.832 115.073 22.632 115.073 21.456C115.073 20.808 114.881 20.28 114.665 19.704L111.569 11.88C110.801 9.96002 109.889 10.176 109.889 9.40802C109.889 8.97602 110.249 8.88002 110.873 8.88002H114.041C114.665 8.88002 115.073 9.00002 115.073 9.40802C115.073 10.176 113.657 9.96002 114.425 11.88L116.897 18.216L119.345 11.88C120.089 9.93602 118.817 10.176 118.817 9.40802C118.817 8.97602 119.201 8.88002 119.801 8.88002ZM133.998 20.64C132.198 20.64 131.238 20.256 130.566 20.256C129.918 20.256 129.798 20.616 129.366 20.616C128.934 20.616 128.646 20.328 128.478 19.32C128.31 18.36 128.118 17.28 127.998 15.888C127.95 15.312 128.046 14.928 128.454 14.928C128.838 14.928 129.078 15.192 129.438 15.84C130.134 17.328 131.478 19.248 134.262 19.272C136.302 19.272 137.214 18.048 137.262 16.728C137.334 14.88 135.222 14.04 133.206 13.056C130.662 11.784 128.31 10.824 128.31 7.94402C128.31 5.52002 130.494 3.40802 134.118 3.40802C135.222 3.40802 136.158 3.69602 136.782 3.69602C137.358 3.69602 137.478 3.40802 137.91 3.40802C138.366 3.40802 138.558 3.64802 138.798 4.65602C138.966 5.44802 139.158 6.33602 139.302 7.46402C139.374 8.01602 139.254 8.40002 138.822 8.40002C138.462 8.40002 138.174 8.11202 137.79 7.51202C136.998 6.31202 135.678 4.70402 133.686 4.70402C131.91 4.70402 130.974 5.68802 130.974 7.03202C130.974 8.71202 132.558 9.40802 134.934 10.608C137.598 11.928 140.07 12.84 140.142 15.624C140.214 18.744 137.214 20.616 133.998 20.64ZM154.102 13.632L154.894 17.784C155.182 19.272 156.142 19.08 156.142 19.872C156.142 20.304 155.782 20.4 155.158 20.4H152.206C151.582 20.4 151.174 20.28 151.174 19.848C151.174 19.104 152.446 19.224 152.158 17.664L151.438 13.776C151.126 12.072 150.694 10.392 148.798 10.416C147.382 10.44 145.99 11.712 145.99 14.208V17.16C145.99 19.416 147.118 18.936 147.118 19.872C147.118 20.304 146.758 20.4 146.134 20.4H143.11C142.51 20.4 142.102 20.28 142.102 19.848C142.102 18.936 143.278 19.416 143.278 17.16L143.254 7.29602C143.254 5.40002 142.102 5.71202 142.102 4.96802C142.102 4.68002 142.246 4.53602 142.822 4.27202C143.854 3.79202 145.126 3.38402 145.486 3.36002C145.846 3.33602 146.014 3.52802 146.014 3.98402L145.99 7.29602V10.608C146.926 9.31202 148.342 8.64002 149.782 8.64002C152.35 8.64002 153.478 10.2 154.102 13.632ZM162.55 20.64C159.334 20.64 156.91 18.48 156.91 15.072C156.91 11.472 159.622 8.64002 163.39 8.64002C166.63 8.64002 168.934 11.112 168.934 14.328C168.934 17.904 166.294 20.64 162.55 20.64ZM163.438 19.272C165.286 19.272 166.27 17.736 166.27 15.744C166.27 12.864 164.662 10.032 162.43 10.032C160.51 10.032 159.598 11.736 159.598 13.728C159.598 16.704 161.182 19.272 163.438 19.272ZM182.458 9.26402L182.434 12.576V17.04C182.434 18.84 183.85 18.36 183.85 19.056C183.85 19.344 183.61 19.584 183.154 19.848C182.482 20.208 181.33 20.64 180.706 20.64C180.082 20.64 179.842 20.208 179.794 19.296L179.77 18.504C178.762 19.896 177.154 20.64 175.834 20.64C173.362 20.64 171.802 19.032 171.802 15.84L171.778 12.576C171.778 10.68 170.626 10.992 170.626 10.248C170.626 9.96002 170.77 9.81602 171.346 9.55202C172.378 9.07202 173.65 8.66402 174.01 8.64002C174.37 8.61602 174.538 8.80802 174.538 9.26402L174.514 12.576V15.624C174.514 17.616 175.114 18.912 176.746 18.888C178.162 18.864 179.722 17.472 179.722 15.288V12.576C179.722 10.68 178.546 10.992 178.546 10.248C178.546 9.96002 178.69 9.81602 179.266 9.55202C180.298 9.07202 181.57 8.66402 181.93 8.64002C182.29 8.61602 182.458 8.80802 182.458 9.26402ZM186.989 17.16L186.965 7.29602C186.965 5.40002 185.813 5.71202 185.813 4.96802C185.813 4.68002 185.957 4.53602 186.533 4.27202C187.565 3.79202 188.837 3.38402 189.197 3.36002C189.557 3.33602 189.725 3.52802 189.725 3.98402L189.701 7.29602V17.16C189.701 19.416 190.829 18.936 190.829 19.872C190.829 20.304 190.469 20.4 189.845 20.4H186.821C186.221 20.4 185.813 20.28 185.813 19.848C185.813 18.936 186.989 19.416 186.989 17.16ZM204.012 3.98402L203.988 7.27202L203.964 17.016C203.964 18.816 205.38 18.336 205.38 19.056C205.38 19.344 205.164 19.56 204.684 19.824C204.012 20.184 202.884 20.616 202.26 20.616C201.636 20.616 201.372 20.208 201.348 19.296L201.324 18.552C200.532 19.704 199.188 20.664 197.268 20.64C194.292 20.592 192.3 18.288 192.3 15.192C192.3 11.232 195.348 8.64002 198.324 8.64002C199.428 8.64002 200.484 8.95202 201.276 9.50402V7.29602C201.276 5.42402 200.1 5.71202 200.1 4.96802C200.1 4.68002 200.244 4.53602 200.82 4.27202C201.852 3.79202 203.124 3.38402 203.508 3.36002C203.844 3.33602 204.012 3.52802 204.012 3.98402ZM198.372 18.816C200.1 18.816 201.108 17.4 201.252 15.96V14.688C201.204 13.704 201.06 12.576 200.628 11.784C200.004 10.608 199.068 9.98402 197.868 9.98402C196.02 9.98402 194.916 11.592 194.916 13.896C194.916 17.112 196.668 18.816 198.372 18.816ZM223.523 3.60002H225.659C226.331 3.60002 226.787 3.72002 226.787 4.15202C226.787 4.99202 225.467 4.63202 224.411 6.31202L220.187 12.96V16.656C220.187 19.464 221.651 18.792 221.651 19.824C221.651 20.256 221.315 20.4 220.379 20.4H217.139C216.275 20.4 215.891 20.256 215.891 19.824C215.891 18.792 217.379 19.464 217.379 16.656V12.96L212.891 6.40802C211.715 4.68002 210.683 4.96802 210.683 4.17602C210.683 3.69602 211.067 3.60002 211.835 3.60002H215.723C216.347 3.60002 216.755 3.72002 216.755 4.15202C216.755 4.96802 215.243 4.75202 216.347 6.43202L219.635 11.4L222.755 6.31202C223.787 4.63202 222.539 4.96802 222.539 4.17602C222.539 3.72002 222.971 3.60002 223.523 3.60002ZM229.979 20.64C226.763 20.64 224.339 18.48 224.339 15.072C224.339 11.472 227.051 8.64002 230.819 8.64002C234.059 8.64002 236.363 11.112 236.363 14.328C236.363 17.904 233.723 20.64 229.979 20.64ZM230.867 19.272C232.715 19.272 233.699 17.736 233.699 15.744C233.699 12.864 232.091 10.032 229.859 10.032C227.939 10.032 227.027 11.736 227.027 13.728C227.027 16.704 228.611 19.272 230.867 19.272ZM249.887 9.26402L249.863 12.576V17.04C249.863 18.84 251.279 18.36 251.279 19.056C251.279 19.344 251.039 19.584 250.583 19.848C249.911 20.208 248.759 20.64 248.135 20.64C247.511 20.64 247.271 20.208 247.223 19.296L247.199 18.504C246.191 19.896 244.583 20.64 243.263 20.64C240.791 20.64 239.231 19.032 239.231 15.84L239.207 12.576C239.207 10.68 238.055 10.992 238.055 10.248C238.055 9.96002 238.199 9.81602 238.775 9.55202C239.807 9.07202 241.079 8.66402 241.439 8.64002C241.799 8.61602 241.967 8.80802 241.967 9.26402L241.943 12.576V15.624C241.943 17.616 242.543 18.912 244.175 18.888C245.591 18.864 247.151 17.472 247.151 15.288V12.576C247.151 10.68 245.975 10.992 245.975 10.248C245.975 9.96002 246.119 9.81602 246.695 9.55202C247.727 9.07202 248.999 8.66402 249.359 8.64002C249.719 8.61602 249.887 8.80802 249.887 9.26402ZM90.6331 44.448V37.344C90.6331 34.536 89.1691 35.208 89.1691 34.176C89.1691 33.744 89.5051 33.6 90.4411 33.6H93.6811C94.5451 33.6 94.9291 33.744 94.9291 34.176C94.9291 35.208 93.4411 34.536 93.4411 37.344V43.488C93.4411 47.856 92.2891 50.616 88.0171 50.616C84.9451 50.616 83.4331 48.6 83.4331 46.632C83.4331 45.672 84.0331 45.168 84.7531 45.168C85.6411 45.168 86.0731 45.768 86.1691 46.512C86.4331 48.072 86.9851 49.176 88.3291 49.176C89.9371 49.176 90.6331 47.376 90.6331 44.448ZM101.976 50.64C98.7595 50.64 96.3355 48.48 96.3355 45.072C96.3355 41.472 99.0475 38.64 102.816 38.64C106.056 38.64 108.36 41.112 108.36 44.328C108.36 47.904 105.72 50.64 101.976 50.64ZM102.864 49.272C104.712 49.272 105.696 47.736 105.696 45.744C105.696 42.864 104.088 40.032 101.856 40.032C99.9355 40.032 99.0235 41.736 99.0235 43.728C99.0235 46.704 100.608 49.272 102.864 49.272ZM111.966 37.08C111.174 37.056 110.646 36.48 110.694 35.76C110.718 34.752 111.894 33.648 112.998 33.744C113.742 33.768 114.318 34.392 114.294 35.112C114.246 36.12 113.046 37.128 111.966 37.08ZM111.462 47.16L111.438 42.576C111.438 40.704 110.286 40.992 110.286 40.248C110.286 39.984 110.43 39.84 111.006 39.576C112.038 39.072 113.31 38.664 113.67 38.64C114.03 38.64 114.198 38.808 114.198 39.264L114.174 42.576V47.16C114.174 49.416 115.302 48.936 115.302 49.872C115.302 50.304 114.942 50.4 114.318 50.4H111.318C110.694 50.4 110.286 50.28 110.286 49.848C110.286 48.936 111.462 49.416 111.462 47.16ZM129.294 43.632L130.086 47.784C130.374 49.272 131.334 49.08 131.334 49.872C131.334 50.304 130.974 50.4 130.35 50.4H127.398C126.774 50.4 126.366 50.28 126.366 49.848C126.366 49.104 127.638 49.224 127.35 47.664L126.63 43.776C126.318 42.072 125.886 40.392 123.99 40.416C122.574 40.44 121.182 41.712 121.182 44.208V47.16C121.182 49.416 122.31 48.936 122.31 49.872C122.31 50.304 121.95 50.4 121.326 50.4H118.302C117.702 50.4 117.294 50.28 117.294 49.848C117.294 48.936 118.47 49.416 118.47 47.16V42.456C118.47 41.712 118.278 41.184 117.726 40.824C117.486 40.656 117.294 40.488 117.294 40.2C117.294 39.888 117.438 39.72 118.014 39.456C118.878 39.072 120.03 38.712 120.39 38.688C120.726 38.688 120.894 38.856 120.894 39.312L120.87 41.088C121.806 39.456 123.39 38.64 124.974 38.64C127.542 38.64 128.67 40.2 129.294 43.632ZM140.404 46.176L139.9 47.448C139.156 49.368 140.5 49.032 140.5 49.824C140.5 50.28 140.068 50.4 139.516 50.4H137.452C136.78 50.4 136.348 50.28 136.348 49.848C136.348 49.008 137.596 49.368 138.34 47.448L142.756 36.312C143.332 34.872 141.94 35.016 141.94 34.176C141.94 33.792 142.156 33.6 142.66 33.6H145.108C145.492 33.6 145.732 33.768 145.876 34.128L151.108 47.4C151.9 49.368 152.884 48.984 152.884 49.8C152.884 50.256 152.548 50.4 151.66 50.4H148.324C147.652 50.4 147.268 50.256 147.268 49.848C147.268 48.984 148.804 49.272 148.06 47.4L147.604 46.2C147.316 45.48 147.316 45.48 144.052 45.48C140.668 45.48 140.668 45.48 140.404 46.176ZM144.076 44.208C146.812 44.208 146.812 44.208 146.572 43.584L143.98 36.984L141.412 43.584C141.172 44.208 141.172 44.208 144.076 44.208ZM155.888 37.08C155.096 37.056 154.568 36.48 154.616 35.76C154.64 34.752 155.816 33.648 156.92 33.744C157.664 33.768 158.24 34.392 158.216 35.112C158.168 36.12 156.968 37.128 155.888 37.08ZM155.384 47.16L155.36 42.576C155.36 40.704 154.208 40.992 154.208 40.248C154.208 39.984 154.352 39.84 154.928 39.576C155.96 39.072 157.232 38.664 157.592 38.64C157.952 38.64 158.12 38.808 158.12 39.264L158.096 42.576V47.16C158.096 49.416 159.224 48.936 159.224 49.872C159.224 50.304 158.864 50.4 158.24 50.4H155.24C154.616 50.4 154.208 50.28 154.208 49.848C154.208 48.936 155.384 49.416 155.384 47.16ZM168.2 38.64C169.544 38.64 170.192 39.504 170.192 40.512C170.192 41.28 169.736 41.904 169.136 41.904C168.032 41.928 168.104 40.776 166.952 40.776C165.992 40.776 165.104 42.024 165.104 43.944V47.16C165.104 49.416 166.232 48.936 166.232 49.872C166.232 50.304 165.872 50.4 165.248 50.4H162.224C161.624 50.4 161.216 50.28 161.216 49.848C161.216 48.936 162.392 49.416 162.392 47.16V42.456C162.392 41.712 162.2 41.184 161.648 40.824C161.408 40.656 161.216 40.488 161.216 40.2C161.216 39.888 161.36 39.72 161.936 39.456C162.8 39.072 163.952 38.712 164.312 38.688C164.648 38.688 164.816 38.856 164.816 39.312L164.792 40.968C165.632 39.528 166.928 38.64 168.2 38.64ZM179.483 38.64C182.387 38.616 184.643 40.8 184.643 44.136C184.643 48.12 181.883 50.64 179.099 50.64C176.771 50.64 176.195 49.68 175.331 49.68C174.587 49.704 173.987 50.448 173.291 50.448C172.883 50.448 172.715 50.184 172.787 49.776C172.907 49.128 172.955 48.408 172.955 47.616V37.296C172.955 35.4 171.779 35.712 171.779 34.968C171.779 34.68 171.923 34.536 172.499 34.272C173.531 33.792 174.803 33.384 175.163 33.36C175.523 33.336 175.691 33.528 175.691 33.984L175.667 37.296V40.56C176.459 39.48 177.779 38.664 179.483 38.64ZM179.099 49.368C180.947 49.368 182.003 47.712 182.003 45.36C182.003 42.312 180.419 40.32 178.547 40.32C176.555 40.32 175.643 42.264 175.643 43.584L175.667 45.432C175.667 47.544 177.203 49.368 179.099 49.368ZM187.422 47.16L187.398 37.296C187.398 35.4 186.246 35.712 186.246 34.968C186.246 34.68 186.39 34.536 186.966 34.272C187.998 33.792 189.27 33.384 189.63 33.36C189.99 33.336 190.158 33.528 190.158 33.984L190.134 37.296V47.16C190.134 49.416 191.262 48.936 191.262 49.872C191.262 50.304 190.902 50.4 190.278 50.4H187.254C186.654 50.4 186.246 50.28 186.246 49.848C186.246 48.936 187.422 49.416 187.422 47.16ZM205.087 48.744C205.351 48.72 205.543 48.816 205.543 49.08C205.543 49.776 204.415 50.568 203.311 50.568C202.183 50.568 201.727 49.944 201.463 48.744C200.383 50.016 198.727 50.616 197.335 50.616C194.527 50.616 192.823 49.056 192.823 47.016C192.823 44.736 194.863 43.104 198.031 43.104C198.847 43.104 199.423 43.176 200.287 43.344C199.831 41.64 199.423 40.368 197.503 40.368C196.279 40.368 195.343 40.8 194.407 41.328C193.951 41.616 193.495 41.256 193.831 40.704C194.431 39.792 196.207 38.664 198.439 38.664C201.295 38.664 202.255 40.536 202.759 42.576L203.911 47.448C204.151 48.528 204.583 48.744 205.087 48.744ZM198.247 49.2C199.759 49.2 201.271 48.072 201.079 47.064C201.007 46.584 200.815 45.96 200.575 45.024C200.455 44.448 199.207 44.232 198.439 44.232C196.519 44.232 195.463 45.168 195.487 46.632C195.535 48.096 196.567 49.2 198.247 49.2ZM211.969 50.64C208.441 50.64 206.281 48.072 206.281 45.024C206.281 41.376 209.017 38.664 212.449 38.664C215.425 38.664 217.201 40.608 217.201 42.576C217.201 43.56 216.601 44.064 215.857 44.064C214.993 44.064 214.657 43.44 214.441 42.696C214.009 41.136 213.241 40.008 211.753 39.984C209.953 39.984 208.897 41.496 208.897 43.584C208.897 46.632 210.601 48.672 213.145 48.672C214.681 48.672 215.665 47.928 216.505 47.112C216.961 46.68 217.489 46.968 217.249 47.616C216.745 48.888 215.113 50.64 211.969 50.64ZM228.19 41.064L227.326 41.976L229.942 47.952C230.494 49.176 231.574 49.2 231.574 49.92C231.574 50.304 231.262 50.4 230.518 50.4H227.614C226.894 50.4 226.582 50.28 226.582 49.92C226.582 49.2 227.734 49.224 227.278 48.24L225.406 44.04L222.478 47.16C222.478 49.416 223.606 48.936 223.606 49.872C223.606 50.304 223.246 50.4 222.622 50.4H219.598C218.998 50.4 218.59 50.28 218.59 49.848C218.59 48.936 219.766 49.416 219.766 47.16L219.742 37.296C219.742 35.4 218.59 35.712 218.59 34.968C218.59 34.68 218.734 34.536 219.31 34.272C220.342 33.792 221.614 33.384 221.974 33.36C222.334 33.336 222.502 33.528 222.502 33.984L222.478 37.296V45.336L226.63 40.92C227.446 40.032 226.126 39.96 226.126 39.36C226.126 39.048 226.342 38.88 226.942 38.88H229.558C230.11 38.88 230.398 39.024 230.398 39.36C230.398 39.984 229.438 39.696 228.19 41.064ZM238.377 43.944C238.305 44.832 237.153 44.784 237.153 43.752C237.153 40.56 239.697 39.12 239.721 36.576C239.745 35.472 239.121 34.656 238.041 34.656C237.009 34.656 236.385 35.472 235.881 36.96C235.641 37.584 235.425 38.16 234.585 38.16C233.697 38.16 233.265 37.512 233.265 36.744C233.265 35.064 234.993 33.36 238.065 33.36C241.041 33.36 242.817 34.8 242.793 36.72C242.769 39 240.057 40.296 238.953 42.072C238.689 42.504 238.401 43.344 238.377 43.944ZM237.825 50.64C237.009 50.64 236.289 50.136 236.289 49.152C236.289 48.072 237.153 47.4 237.993 47.4C238.809 47.4 239.553 47.952 239.553 48.96C239.553 50.016 238.713 50.64 237.825 50.64Z" fill="#F5F5F5"/>
</g>
<path d="M284.26 29.9137L282.5 27.5923L282.5 33.2078L284.26 30.8863V29.9137ZM327 29.9137L284.084 29.9137V30.8863L327 30.8863V29.9137Z" fill="url(#paint1_linear_1_224)"/>
<defs>
<filter id="filter0_d_1_224" x="66.1049" y="1.33602" width="189.174" height="55.304" filterUnits="userSpaceOnUse" color-interpolation-filters="sRGB">
<feFlood flood-opacity="0" result="BackgroundImageFix"/>
<feColorMatrix in="SourceAlpha" type="matrix" values="0 0 0 0 0 0 0 0 0 0 0 0 0 0 0 0 0 0 127 0" result="hardAlpha"/>
<feOffset dy="2"/>
<feGaussianBlur stdDeviation="2"/>
<feColorMatrix type="matrix" values="0 0 0 0 0 0 0 0 0 0 0 0 0 0 0 0 0 0 0.0484594 0"/>
<feBlend mode="normal" in2="BackgroundImageFix" result="effect1_dropShadow_1_224"/>
<feBlend mode="normal" in="SourceGraphic" in2="effect1_dropShadow_1_224" result="shape"/>
</filter>
<linearGradient id="paint0_linear_1_224" x1="44.5" y1="30.4" x2="0" y2="30.4" gradientUnits="userSpaceOnUse">
<stop stop-color="#E74D85"/>
<stop offset="1" stop-color="#E74D85" stop-opacity="0"/>
</linearGradient>
<linearGradient id="paint1_linear_1_224" x1="282.5" y1="30.4" x2="327" y2="30.4" gradientUnits="userSpaceOnUse">
<stop stop-color="#E74D85"/>
<stop offset="1" stop-color="#E74D85" stop-opacity="0"/>
</linearGradient>
</defs>
</svg>
